# xmcd CD database file
#
# Track frame offsets:
#	150
#	13033
#	21705
#	34617
#	50973
#	70573
#	85711
#	96964
#	113115
#	126235
#	143999
#	154440
#	167296
#	176220
#	192144
#	204758
#	222496
#	239418
#
# Disc length: 3449 seconds
#
# Revision: 1
# Processed by: cddbd v1.5.2PL0 Copyright (c) Steve Scherf et al.
# Submitted via: CDex 1.70beta2
#
DISCID=020d7712
DTITLE=Jan Nedvěd - Bible pro Lucii
DYEAR=2004
DGENRE=Folk
TTITLE0=Dvanáct učedníků
TTITLE1=Kandík
TTITLE2=Nikdy nezapomeň
TTITLE3=Slovensku
TTITLE4=Synek
TTITLE5=Kačence
TTITLE6=Tatínek
TTITLE7=Panáček
TTITLE8=Na náměstí u kostela
TTITLE9=Lamy
TTITLE10=Hups
TTITLE11=Vrba
TTITLE12=Sirény
TTITLE13=Orchidej
TTITLE14=Oslík
TTITLE15=Dopis
TTITLE16=Bráchovy pyngle
TTITLE17=Živá voda
EXTD=YEAR: 2004
EXTT0=
EXTT1=
EXTT2=
EXTT3=
EXTT4=
EXTT5=
EXTT6=
EXTT7=
EXTT8=
EXTT9=
EXTT10=
EXTT11=
EXTT12=
EXTT13=
EXTT14=
EXTT15=
EXTT16=
EXTT17=
PLAYORDER=
